<?xml version="1.0" encoding="UTF-8"?>
<svg id="Layer_1" data-name="Layer 1" xmlns="http://www.w3.org/2000/svg" viewBox="0 0 696.4 512.35">
  <defs>
    <style>
      .cls-1 {
        fill: #fff;
      }

      .cls-2 {
        fill: none;
      }

      .cls-3 {
        font-family: ArialMT, Arial;
        font-size: 48px;
        isolation: isolate;
      }

      .cls-3, .cls-4 {
        fill: #ff6200;
      }

      .cls-5 {
        stroke: #ff6200;
        stroke-miterlimit: 10;
        stroke-width: 7px;
      }

      .cls-5, .cls-6 {
        fill: #ffdb0d;
      }
    </style>
  </defs>
  <path class="cls-6" d="M505.73,306.77c.21-5.29-2.9-10.14-6.6-14.32-2.77-3.04-5.88-5.83-9.26-8.18-2.11-1.32-4.28-2.93-6.85-3.07-.04,0-.08.01-.12.01-3.71-1.65-7.82-2.92-12.52-4.25-5.61-1.89-6.74-2.09-10.17-5.69-5.73-6.04-8.21-23.63-11.2-38.15-1.84-8.2-2.11-11.39-2.67-17.72-.5-17.65,1.36-35.31.07-52.95-.72-9.99-2.24-20.14-6.77-29.18-5.25-10.59-15.34-19.19-27.28-20.74-12.82-1.74-27.96,2.88-35.64,13.73-5.23,7.11-4.98,16.28-2.69,24.42,3.09,11.32,9.57,21.22,15.65,31.11,4.4,6.9,10.06,17.65,11.39,21.49,4.41,11.55,5.69,21.74,1.97,27.68l-.07.07h0c-.09.02-.19.03-.29.05-.07,0-.14.01-.22.01-.14.01-.28-.02-.42-.03-.36-.07-.71-.15-1.07-.24-3.2-.84-4.15-1.49-4.35-1.53-3.66-2.1-2.44-1.16-4.39-3.25-.27-.41-.66-1.01-.93-1.52-.05-.14-.12-.31-.21-.55-1.34-4.55-.95-12.45-5.66-19.31-4.91-7.35-14.24-9.98-22.67-8.72-4.88.44-9.74,1.41-14.18,3.54-9.37,4.27-15.31,13.15-19.95,21.98-6.01,10.74-8.86,18.69-16.32,22-3.42,1.23-11.85-.17-16.55-9.27-4.1-6.29-3.85-24.13-13.3-32.22-4.73-4.5-11.6-4.02-17.55-2.82-7.59,1.26-14.64,5-20.02,10.48-4.32,4.4-8.32,9.31-10.7,15.06-2.15,4.76-3.09,9.93-4.38,14.97-2.33,8.28-4.64,16.57-6.73,24.92-2.56,9.13-6.59,14-13.07,16.11-3.05,1.17-9.08.16-10.37.04-13.89-2.08-19.81-10.59-34.88-3.49-9.59,3.88-16.77,15.2-14.72,25.21.01.43.01.87.04,1.3.21,2.7.56,5.5,2.03,7.84.17.26.36.52.57.78,1.03,1.84,2.57,3.45,4.48,3.35,1.46.41,2.94.13,4.17-1.43.02-.03.03-.05.05-.08.51.17,1.01.35,1.51.52,3.65,3.8,10.81,3,15.36.85.3-.12.59-.27.88-.4.22.14.44.28.68.39,1.22.49,2.47.8,3.73.96.63,1.67,2.06,3.07,3.93,3.49,3.94.74,7.82-.91,11.58-1.91,2.44-.71,4.89-1.42,7.37-1.97-.01.04-.02.09-.04.13-1.22,3.74-1.31,8.59,2.6,10.73.25.11.5.19.75.28-.21,3.03-.24,6.06-.1,9.09-.12,1.37-.12,2.72-.11,3.89.09,4.62.28,9.27,1.11,13.82.41,2.33,1.07,4.62,1.95,6.82.62,1.61,1.31,3.35,2.9,4.23.63.38,1.33.58,2.05.64.2.42.43.82.73,1.19.9,1.32,2.57,2.02,4.2,2.02,1.27,2.1,4.17,3.06,6.43,2.06,1.9,1.39,4.81,1.37,6.55-.44,1.92-2.1,1.83-5.25,2.55-7.87,1.2-6.43,2.24-12.88,3.02-19.38.2-3.07,1.21-6.24.52-9.28-.25-.93-.76-1.72-1.42-2.35.02-1.29.03-2.58.01-3.87-.04.01-.08.01-.12.02-.01-.15-.01-.3-.02-.44.33-1.62.66-3.23.98-4.85.07-.31.26-1.43.44-2.59,1.3.35,2.82.28,4.41-.39,1.57-.73,3.11-1.53,4.63-2.36,2.56-.23,5.12-.73,7.63-1.39-.04.06-.09.11-.13.17-1.09,1.49-2.41,3.01-2.37,4.97-.23,2.84,2.11,5.55,5.01,5.48.51-.02.99-.12,1.46-.25.27-.01.55-.04.82-.09-3.82,7.03-7.43,14.22-9.79,21.88-.77,2.19-1.36,4.75-.13,6.88.1.17.22.31.33.47-.06.9-.02,1.81.22,2.71,1.02,3.67,5.49,5.61,8.84,3.65.56-.29,1.06-.65,1.53-1.03,1.17,3.03,4.44,4.79,8.09,2.77,3.24-2.17,3.9-6.33,4.81-9.85,1.22-6.06,2.37-11.44,3.62-16.35.88-2.23,1.78-4.4,2.68-6.54.3-.05.61-.12.92-.23,4.36-1.33,7.22-5.38,10.19-8.61,1.61-1.97,3.21-3.94,4.82-5.91.88.36,1.88.5,2.95.33,3.02-.33,5.7-1.93,8.26-3.52,1.34.4,2.89.53,4.57.29.74-.09,1.46-.22,2.18-.37,1.15.99,2.73,1.59,4.55,1.43,2.7-.22,5.22-1.12,7.67-2.24.44.42.95.76,1.53.96.95.47,1.95.53,2.93.36,1.42,1.22,2.98,1.4,4.54,1.04.01.02.01.04.01.05-.68.63-1.26,1.33-1.61,2.2-1.54,3.11,1.15,7.01,4.57,6.93,1.35.03,2.49-.6,3.57-1.33.01.03.03.06.04.09-2.96,3.51-4.33,7.62-.76,11.53,1.07,1.34,2.62,2.04,4.17,2.11-.12,1.34-.2,2.68.57,3.87,1.31,2.34,4.55,3.2,6.84,1.79,1.73-.99,2.66-2.77,3.67-4.41.37-.6.76-1.2,1.13-1.8,1.61-1.12,2.29-3.08,3.05-4.85,2.17-3.42,4.41-6.8,6.47-10.29.15.29.33.57.55.82,1.62,2.36,4.83,2.34,7.2,1.15,3.43-.97,6.92-1.79,10.38-2.63,7.56-1.76,15.16-3.41,22.84-4.54.46.48.96.92,1.49,1.3-.06,3.78,2.31,7.2,5.83,8.03,1.02,1.44,2.77,2.42,4.52,2.33,2.34-.01,4.28-1.47,5.97-2.96,2.54-2.44,4.94-5.06,7.18-7.8,1.79.16,3.59.26,5.33.52,7.84.68,15.92.95,23.52-1.17.38-.04.77-.08,1.15-.13,1.76-.27,3.62-.32,5.21-1.21,1.07-.74,1.8-1.56,2.24-2.42.53.24,1.12.37,1.77.37,1.38-.04,2.37-.59,3.06-1.42.74.21,1.57.46,2.32.3,1.13,1.45,2.47,2.74,3.98,3.76,5.17,2.92,13.62,4.14,18.22-.22-.01.1-.03.19-.04.29-.28,1.92-.56,3.85-.74,5.78.35-1.14.73-2.28,1.13-3.4.96-3.22,2.79-6.34,2.77-9.76.03-.13-.01-.24-.04-.36Z"/>
  <path class="cls-6" d="M163.86,428.29c2.52-4.69,4.36-9.77,5.51-13.71,2.08-6.57-1.98-12.09-8.14-10.4.09-.3.16-.6.2-.91,1.03-.56,2.04-1.14,2.71-2.09,2.28-2.56.69-7.06-2.6-7.85-.59-.15-1.17-.17-1.74-.11-.53-.2-1.11-.31-1.73-.3-.97-.02-1.84.31-2.66.76-.64-.8-1.52-1.41-2.54-1.67-1.85-.5-3.58.24-5.24,1.09-.8-.4-1.72-.56-2.66-.41-1.73.08-3.29.77-4.8,1.55-1.16-1.32-2.97-2.03-4.99-1.47-.33.05-.66.12-.99.2-.86-1.57-2.56-2.68-4.4-2.64-.77-.1-1.52-.03-2.26.13-.33-2.1-1.91-4.09-4.04-4.51-1.12-.21-2.32-.23-3.39.19-.15.05-.33.12-.51.2,0-.48-.03-.97-.13-1.48-.22-.73-.5-1.36-.83-1.9.09-.28.16-.57.19-.87.37-2.89-1.43-4.95-3.79-5.48-.08-.29-.17-.58-.32-.87-.9-2.45-3.78-3.74-6.27-3.09-1.5.5-2.74,1.5-4.06,2.33-2.85,1.85-5.67,3.74-8.3,5.88-.61.51-1.24,1.02-1.82,1.58-1.97.83-3.92,1.7-5.84,2.63-3.45,1.26-4.69,4.37-4.02,6.92-.15.08-.29.16-.44.23-1.93,1.18-3.84,2.42-5.72,3.68-2.5.85-4.69,1.67-6.13,2.11-.15.05-.29.11-.43.16-2.22.5-4.45.95-6.67,1.42-.3.08-.61.14-.93.21-2.07-1.37-4.46-2.31-6.92-2.7-6.31-1.45-13.29.2-16.67,5.89-1.57-.01-3.32.41-5.18,1.39-3.12,1.94-5.44,4.66-7.32,7.72-2.02,2.41-3.72,5.09-5.02,7.74-2.71,1.61-4.11,5.22-2.68,8.13.26.63.63,1.23,1.09,1.78-.12.43-.23.85-.32,1.24-.75,3.96,2.73,7.47,6.61,7.54,2.17.11,4.3-.46,6.28-1.39,1.18-.01,2.35-.1,3.51-.24.12.22.26.43.41.64-.51,1.56-.87,3.15-.87,4.8.03.91.25,1.76.62,2.54-.96,2.12-1.87,4.36-1.4,6.53-.54.66-1.07,1.32-1.6,1.98-5.75,4.21-11.23,9.84-13.2,12.63-1.1,1.21-1.83,2.39-2.25,3.5-.58.42-1.15.85-1.7,1.3-1.26.92-2.36,2.06-2.83,3.58-.99,3.36,2.06,6.77,5.49,6.45,1.29-.18,2.57-.44,3.83-.75.94.08,1.94-.1,2.96-.65.16-.1.3-.22.45-.34,5.13-1.71,10-4.26,14.78-6.84,1.19.93,2.79,1.49,4.55,1.49,6.06.11,12.03-1.35,18.02-2.1,4.5-.64,9.05-.89,13.56-1.49,1.97,1.91,5.28,2.83,8.07,2.87,6.58.2,13.01-1.75,19.19-3.78,1.58-.56,3.16-1.15,4.73-1.75.69,1.09,1.56,2.1,2.34,3.07,1.68,1.88,3.62,3.48,5.76,4.77.97,5.45,3.33,10.8,8.26,13.7,5.76,3.46,12.31,2.89,16.14-2.94,1.01.26,2.09.21,3.09-.17.32.06.64.1.96.12.75-.02,1.44-.21,2.07-.51,3.18-.58,5.51-4.09,7.56-6.43,4.06-4.85,6.3-11.09,5.87-17.44-.05-.65-.09-1.38-.15-2.16.18-1.88.24-3.77.21-5.66-.03-.93-.05-1.89-.23-2.8,2.05-2.06,2.9-4.83.46-7.52-.95-.86-2-1.29-3.1-1.44-.1-.85-.43-1.68-1.02-2.36-.01-.01-.02-.02-.03-.04.62-.79,1.16-1.63,1.63-2.48,1.48-2.86,2.71-5.87,3.77-8.93Z"/>
  <path class="cls-6" d="M170.74,434.02c-.45-1.27-1.94-1.67-3.07-1.19-.47-.33-1.01-.54-1.61-.65-.83-1.62-2.81-2.48-4.61-2-1.35.4-2.21,1.48-3.01,2.58-.82.21-1.46,1.12-1.96,1.81-1.13,1.5-2.1,3.1-2.97,4.76-.58,1.29-1.61,3.2-2.15,5.03-1.05,1.63-1.61,3.37-.83,5.02.88,2.47,4.16,3.52,6.37,2.15.52-.36.98-.8,1.4-1.28.08.01.15.04.23.05-.23.74-.53,1.42-1.15,1.91-.08.06-.17.11-.26.16.62-.15,1.19-.55,1.55-1.08.19-.33.39-.65.59-.97.27-.02.55-.07.82-.17.7-.23,1.27-.6,1.77-1.06-.39,1.15-.71,2.33-.93,3.54-1.27,8.56-.8,11.48-2.97,19.28-3.25,12.76-22.47,18.85-30.32,14.24-.09-.08-.19-.15-.28-.24-.05-.06-.08-.09-.13-.14-.11-.16-.21-.33-.3-.5-.17-.63-.7-2.36-.75-3.08-.8-4.22-2.19-8.45-5.03-11.76-6.15-7.56-15.74-7.42-24.31-4.73-5.45,1.87-8.69,4-11.41,4.69-.16.05-.33.07-.5.11-.11,0-.2-.01-.29-.01-.24-.06-.48-.13-.72-.22-2.94-1.49-5.82-3.14-9.03-3.99-6.64-1.47-13.56-.26-20.15.98-8.75,2-17.07,5.45-25.64,8.04-5.79,1.55-6.19,2.18-10.52,1.91,2.96-5.01,5.09-7,10.56-12.28,7.37-6.53,19.9-16.89,11.48-27.28-2.97-3.3-7.69-4-11.9-4.3-7.69-.36-8.24-.64-6.46-8.37,1.5-5.48,6.88-10.49,12.61-16.5.72-.77,1.47-1.55,2.21-2.35.32,1.09,1.21,1.86,2.58,1.95,1.04,1.86,3.88,2.46,5.72,1.09,3-2.05,5.69-7.91,2.8-10.95-.58-.48-1.17-.82-1.75-1.04.13-.2.25-.4.3-.64.32-1.06-.89-2.22-1.92-1.76-.54.19-.77.71-.83,1.24-.25.3-.47.64-.67.98-.23.07-.46.16-.68.26.23-.89.36-1.8.37-2.77-.31,1.12-.7,2.23-1.24,3.26-.93.64-1.7,1.57-2.24,2.66-.61.5-1.12,1.09-1.54,1.75-.96.84-1.85,1.55-2.2,1.82-4.88,3.8-10.19,7.12-14.58,11.51-3.33,3.45-5.78,7.74-6.7,12.46-1.25,4.42.48,9.36,4.51,11.71,6.2,3.16,8.47,1.57,13.49,3.51.19.1.49.25.79.43.03.03.07.06.1.1.05.09.11.2.18.33.05.16.11.37.17.6,0,.09.01.19.01.28-.06.22-.12.43-.17.59-2.02,3.99-3.34,4.8-7.94,9.13-5.89,5.2-11.62,10.75-15.72,17.52-3.96,6.08-3.19,11.87,4.23,14.32,6.99,2.12,14.13-.4,20.81-2.52,7.47-2.4,14.8-5.3,22.47-7.04,4.64-1.12,12.03-1.55,14.03-1.16,3.94,1.12,1.87.35,5.84,2.35,3.08,1.83,6.68,2.98,10.25,2.08,6.84-2.12,9.27-4.36,14.08-5.43,6.82-1.37,8.58-1.17,11.92,2.1.35.54,1.81,2.01,2.65,6.32.72,4.47,2.15,9.07,6.3,11.49,7.34,4.15,16.53,2.85,23.97-.41,9.37-3.84,16.93-12.51,17.73-22.82.95-7.03-.57-14.1-.08-21.13.26-2.27.9-4.55,1.68-6.68.96-1.26,1.74-2.63,2.54-4,.41-.48.7-.98.9-1.5.32-.51.65-1,1-1.49.14-.15.48-.57.53-.83.26-.54.26-1.24-.02-1.78Z"/>
  <g>
    <g>
      <path class="cls-5" d="M18.39,378.41c-.89-2.1-1.18-4.2-.86-6.3s1.15-3.89,2.48-5.39c1.34-1.49,3.09-2.54,5.25-3.15,2.16-.61,4.59-.41,7.26.58,2.42.89,4.49,2.18,6.21,3.9,1.72,1.71,3.79,3.07,6.21,4.06,3.31,1.44,6.69,2.49,10.13,3.15,2.42.55,4.84.91,7.26,1.08,2.42.17,4.9.25,7.45.25,1.91-.44,3.56-.88,4.97-1.33,1.4-.44,2.93-1.38,4.59-2.82,1.91-1.44,3.15-3.15,3.73-5.14.57-1.99.57-3.95,0-5.88s-1.66-3.7-3.25-5.3-3.53-2.68-5.83-3.23c-4.46-1.33-8.92-2.35-13.38-3.07-4.46-.72-8.79-1.57-12.99-2.57-4.2-.99-8.19-2.4-11.94-4.23-3.76-1.82-7.23-4.45-10.41-7.87-1.79-1.88-2.93-3.54-3.44-4.97s-1.08-3.26-1.72-5.47c-1.15-5.3-.67-9.78,1.43-13.43,2.1-3.65,4.74-6.96,7.93-9.94,4.08-3.87,8.69-6.82,13.85-8.87,5.16-2.04,10.57-3.37,16.24-3.98s11.4-.5,17.2.33c5.79.83,11.3,2.24,16.53,4.23,3.06,1.11,5,2.82,5.83,5.14s.86,4.59.1,6.8c-.76,2.21-2.23,4.04-4.4,5.47-2.17,1.44-4.71,1.93-7.64,1.49-3.06-.55-5.92-1.13-8.6-1.74-2.67-.61-5.35-1.13-8.02-1.57-2.04-.33-4.24-.39-6.59-.17-2.36.22-4.59.58-6.69,1.08s-4.05,1.05-5.83,1.66c-1.79.61-3.12,1.24-4.01,1.91-1.02.77-2.01,1.77-2.96,2.98-.96,1.22-1.5,2.6-1.62,4.14-.26,1.88.57,3.43,2.48,4.64,1.91,1.22,3.95,2.1,6.11,2.65,4.2.77,8.53,1.52,12.99,2.24,4.46.72,8.85,1.71,13.18,2.98,4.33,1.27,8.37,2.9,12.13,4.89s6.97,4.64,9.65,7.96c2.93,2.87,5.03,6.13,6.31,9.78,1.27,3.65,1.75,7.29,1.43,10.94s-1.31,7.16-2.96,10.52c-1.66,3.37-3.95,6.33-6.88,8.87-2.04,1.77-4.17,3.29-6.4,4.56-2.23,1.27-4.62,2.51-7.17,3.73-5.1,2.32-10.57,3.48-16.43,3.48s-11.72-.75-17.58-2.24c-5.86-1.49-11.4-3.59-16.62-6.3-5.22-2.71-9.68-5.66-13.38-8.87l-1.33-1.66Z"/>
      <path class="cls-5" d="M186.81,424.82c-.53,2.32-1.49,4.28-2.87,5.88-1.39,1.6-3,2.74-4.85,3.4-1.85.66-3.93.8-6.24.41s-4.72-1.47-7.23-3.23c-.66-.55-1.16-1.74-1.49-3.56s-.56-4.03-.69-6.63-.2-5.39-.2-8.37v-8.62c0-2.76-.03-5.28-.1-7.54-.07-2.27-.23-3.95-.5-5.05-4.09.88-8.19,1.46-12.28,1.74-4.09.27-8.25.14-12.48-.41-6.6-1-12.12-2.93-16.54-5.8-4.43-2.87-7.89-6.35-10.4-10.44s-4.13-8.62-4.85-13.59c-.73-4.97-.63-10.05.3-15.25.92-5.19,2.8-9.78,5.64-13.76s6.34-7.38,10.5-10.19c4.16-2.82,8.81-5.03,13.96-6.63s10.56-2.57,16.24-2.9c2.64-.22,5.58-.14,8.81.25s6.17,1.13,8.81,2.24c2.64-.88,5.21-.97,7.72-.25,2.51.72,4.69,2.13,6.54,4.23.4.55.86,1.19,1.39,1.91s.79,1.41.79,2.07c.13,16.57.16,33.09.1,49.56-.07,16.46-.1,32.98-.1,49.56v.97h.02ZM129.97,364.82c.79,2.98,2.54,5.08,5.25,6.3,2.7,1.22,5.71,1.88,9.01,1.99s6.64-.17,10-.83c3.37-.66,6.17-1.38,8.42-2.16v-34.14c-1.58-.44-3.14-.77-4.65-.99-1.52-.22-3.07-.33-4.65-.33-5.81,0-10.4.89-13.77,2.65-3.37,1.77-5.84,4.09-7.43,6.96-1.58,2.88-2.48,6.11-2.67,9.7-.2,3.59-.04,7.2.49,10.85Z"/>
      <path class="cls-5" d="M267.86,377.09c1.11,1.44,1.75,3.12,1.94,5.05.18,1.93-.06,3.76-.74,5.47-.68,1.71-1.79,3.12-3.32,4.23-1.54,1.1-3.54,1.6-6,1.49-3.2-.22-5.79-1.22-7.75-2.98-1.97-1.77-3.82-3.76-5.54-5.97-4.8,3.54-9.76,5.99-14.86,7.38-5.11,1.38-10.13,1.68-15.05.91s-9.54-2.63-13.85-5.55c-4.31-2.93-7.94-6.88-10.89-11.85-2.71-4.64-4.22-9.78-4.52-15.41-.31-5.64-.4-10.99-.28-16.08,0-1.77.06-3.51.18-5.22.12-1.71.25-3.51.37-5.39.12-1.44.18-2.84.18-4.23s.09-2.68.28-3.9c.18-1.21.55-2.43,1.11-3.65.55-1.21,1.38-2.38,2.49-3.48,1.48-1.43,3.26-2.29,5.35-2.57,2.09-.27,4.09-.08,6,.58,1.91.66,3.57,1.69,4.99,3.07,1.41,1.38,2.18,3.07,2.31,5.06.25,5.64.09,11.33-.46,17.07-.55,5.75-.53,11.38.09,16.91.25,2.65,1.02,5.36,2.31,8.12s3.35,4.75,6.18,5.97c2.83,1.11,5.69,1.02,8.59-.25,2.89-1.27,5.26-2.79,7.11-4.56.86-.88,1.69-1.85,2.49-2.9.8-1.05,1.69-1.96,2.68-2.74-.49-3.87-.8-7.73-.92-11.6s-.12-7.73,0-11.6c0-2.1.09-4.39.28-6.88.18-2.49.67-4.86,1.48-7.13.8-2.26,2-4.25,3.6-5.97,1.6-1.71,3.88-2.79,6.83-3.23,1.35-.22,2.68-.11,3.97.33s2.43,1.05,3.42,1.82c1.72,1.33,2.89,2.82,3.51,4.48.61,1.66.92,3.43.92,5.3s-.16,3.79-.46,5.72c-.31,1.93-.52,3.73-.65,5.39-.25,3.09-.43,6.36-.55,9.78-.12,3.43,0,6.85.37,10.28.37,3.43,1.08,6.74,2.12,9.94,1.03,3.21,2.6,6.13,4.69,8.79Z"/>
      <path class="cls-5" d="M338.27,367.8c2.99-.66,5.64-.69,7.94-.08s4.08,1.63,5.33,3.07c1.24,1.44,1.8,3.21,1.68,5.3-.13,2.1-1.19,4.31-3.18,6.63-1.62,1.88-3.86,3.48-6.73,4.81s-5.55,2.38-8.04,3.15c-6.11,1.99-11.9,3.37-17.38,4.14s-10.62.77-15.42,0-9.28-2.38-13.46-4.81-8.07-5.86-11.68-10.28c-2.49-2.98-4.33-6.38-5.51-10.19-1.19-3.81-1.84-7.71-1.96-11.69-.13-3.98.25-7.9,1.12-11.77s2.12-7.35,3.74-10.44c2.12-3.87,5.48-7.4,10.09-10.61,4.61-3.2,9.72-5.74,15.33-7.62,5.61-1.88,11.34-2.96,17.2-3.23,5.86-.27,11.03.53,15.51,2.4,3.74,1.55,6.94,3.79,9.63,6.71,2.68,2.93,4.52,6.11,5.51,9.53,1,3.43,1.09,6.88.28,10.36s-2.84,6.66-6.07,9.53c-3.12,2.76-6.54,5-10.28,6.71-3.74,1.71-7.6,3.21-11.59,4.48-3.99,1.27-8.07,2.35-12.24,3.23-4.18.89-8.19,1.88-12.06,2.98,2.62,2.65,5.61,4.34,8.97,5.06s6.88.86,10.56.41c3.67-.44,7.38-1.35,11.12-2.73s7.23-2.9,10.47-4.56l1.12-.49ZM300.51,339.3c-2.87,1.44-4.99,3.23-6.36,5.39-1.37,2.15-2.37,5.17-2.99,9.03,3.24-.88,6.88-1.82,10.93-2.82,4.05-.99,7.88-2.04,11.49-3.15,3.61-1.1,6.66-2.32,9.16-3.65,2.49-1.33,3.74-2.76,3.74-4.31,0-.88-.16-1.74-.47-2.57s-.97-1.41-1.96-1.74c-3.49-1.1-7.1-1.33-10.84-.66-3.74.66-6.85,1.6-9.35,2.82l-3.35,1.66Z"/>
      <path class="cls-5" d="M412.93,367.8c2.61-.66,4.92-.69,6.94-.08,2.01.61,3.56,1.63,4.65,3.07s1.58,3.21,1.47,5.3c-.11,2.1-1.04,4.31-2.78,6.63-1.41,1.88-3.37,3.48-5.88,4.81-2.5,1.33-4.84,2.38-7.02,3.15-5.33,1.99-10.39,3.37-15.18,4.14s-9.28.77-13.47,0c-4.19-.77-8.11-2.38-11.75-4.81-3.65-2.43-7.05-5.86-10.2-10.28-2.18-2.98-3.78-6.38-4.82-10.19s-1.61-7.71-1.71-11.69c-.11-3.98.22-7.9.98-11.77s1.85-7.35,3.27-10.44c1.85-3.87,4.79-7.4,8.81-10.61,4.03-3.2,8.49-5.74,13.39-7.62s9.9-2.96,15.02-3.23c5.11-.27,9.63.53,13.55,2.4,3.26,1.55,6.07,3.79,8.41,6.71,2.34,2.93,3.94,6.11,4.81,9.53.87,3.43.95,6.88.25,10.36-.71,3.48-2.48,6.66-5.31,9.53-2.72,2.76-5.71,5-8.98,6.71-3.26,1.71-6.64,3.21-10.12,4.48-3.48,1.27-7.05,2.35-10.69,3.23-3.65.89-7.16,1.88-10.53,2.98,2.29,2.65,4.9,4.34,7.84,5.06s6.01.86,9.22.41c3.21-.44,6.45-1.35,9.71-2.73s6.31-2.9,9.14-4.56l.98-.49ZM379.95,339.3c-2.51,1.44-4.35,3.23-5.55,5.39-1.2,2.15-2.07,5.17-2.61,9.03,2.83-.88,6.01-1.82,9.55-2.82,3.54-.99,6.88-2.04,10.04-3.15,3.16-1.1,5.82-2.32,8-3.65s3.26-2.76,3.26-4.31c0-.88-.14-1.74-.41-2.57-.27-.83-.84-1.41-1.71-1.74-3.05-1.1-6.2-1.33-9.47-.66-3.27.66-5.99,1.6-8.16,2.82l-2.94,1.66Z"/>
      <path class="cls-5" d="M503.57,374.93c2.68,1.11,4.78,2.6,6.31,4.48,1.52,1.88,2.31,3.79,2.38,5.72.06,1.93-.64,3.76-2.1,5.47-1.46,1.71-3.84,2.96-7.13,3.73-2.44.55-5.12.58-8.05.08s-5.61-.86-8.05-1.08c-6.22-.44-12.35-.61-18.38-.5-6.04.11-12.16.27-18.38.5-1.71.11-3.54.27-5.49.5-1.95.22-3.9.27-5.85.17-1.95-.11-3.81-.44-5.58-1-1.77-.55-3.26-1.6-4.48-3.15-1.46-1.88-2.17-3.78-2.1-5.72.06-1.93.58-3.81,1.56-5.64.97-1.82,2.19-3.59,3.66-5.3,1.46-1.71,2.8-3.29,4.02-4.72,5.12-6.3,10.52-12.29,16.19-17.98s11.43-11.46,17.28-17.32c-2.56.11-5.15.19-7.77.25s-5.27.14-7.96.25c-3.17.22-6.49.55-9.97.99-3.47.44-6.8.22-9.97-.66-2.81-.77-4.82-2.02-6.03-3.73-1.22-1.71-1.77-3.51-1.65-5.39s.85-3.73,2.2-5.55c1.34-1.82,3.17-3.23,5.49-4.23,1.1-.55,2.26-.83,3.48-.83s2.44-.05,3.66-.17c5.36-.33,10.54-.58,15.55-.75,5-.17,10.24-.3,15.73-.41,1.71,0,4.39-.14,8.05-.41,3.66-.27,7.35-.25,11.07.08,3.72.33,7.01,1.19,9.88,2.57,2.86,1.38,4.42,3.73,4.66,7.04.12,1.88-.25,3.65-1.1,5.3-.85,1.66-1.98,3.21-3.38,4.64-1.4,1.44-2.9,2.79-4.48,4.06-1.59,1.27-2.99,2.51-4.21,3.73-5.61,5.42-11.19,10.83-16.73,16.24-5.55,5.42-10.88,11-16,16.74,7.19-.11,14.29-.03,21.31.25,7.01.28,14.11.75,21.31,1.41l1.05.34Z"/>
      <path class="cls-5" d="M574.5,367.8c2.72-.66,5.13-.69,7.22-.08s3.71,1.63,4.84,3.07,1.64,3.21,1.53,5.3c-.11,2.1-1.08,4.31-2.89,6.63-1.47,1.88-3.51,3.48-6.12,4.81s-5.04,2.38-7.31,3.15c-5.55,1.99-10.82,3.37-15.81,4.14-4.99.77-9.66.77-14.02,0s-8.44-2.38-12.24-4.81-7.34-5.86-10.62-10.28c-2.27-2.98-3.94-6.38-5.01-10.19-1.08-3.81-1.67-7.71-1.78-11.69-.11-3.98.23-7.9,1.02-11.77.79-3.87,1.93-7.35,3.4-10.44,1.92-3.87,4.98-7.4,9.18-10.61,4.19-3.2,8.84-5.74,13.94-7.62s10.31-2.96,15.64-3.23c5.32-.27,10.03.53,14.11,2.4,3.4,1.55,6.31,3.79,8.75,6.71,2.43,2.93,4.11,6.11,5.01,9.53.91,3.43.99,6.88.26,10.36-.74,3.48-2.58,6.66-5.52,9.53-2.83,2.76-5.95,5-9.35,6.71s-6.91,3.21-10.54,4.48c-3.63,1.27-7.34,2.35-11.13,3.23-3.8.89-7.45,1.88-10.96,2.98,2.38,2.65,5.1,4.34,8.16,5.06s6.26.86,9.6.41c3.34-.44,6.71-1.35,10.11-2.73s6.57-2.9,9.52-4.56l1.01-.49ZM540.15,339.3c-2.61,1.44-4.53,3.23-5.78,5.39-1.25,2.15-2.15,5.17-2.72,9.03,2.95-.88,6.26-1.82,9.94-2.82,3.68-.99,7.17-2.04,10.45-3.15,3.29-1.1,6.06-2.32,8.33-3.65,2.27-1.33,3.4-2.76,3.4-4.31,0-.88-.14-1.74-.42-2.57s-.88-1.41-1.78-1.74c-3.17-1.1-6.46-1.33-9.86-.66-3.4.66-6.23,1.6-8.5,2.82l-3.06,1.66Z"/>
      <path class="cls-5" d="M588.11,291.06c.63-4.09,2.63-7.1,6.01-9.03,3.38-1.93,6.95-2.87,10.72-2.82,3.77.06,7.27,1.08,10.49,3.07s4.91,4.81,5.07,8.45c.31,3.76-1.06,6.66-4.12,8.7-3.07,2.05-6.56,3.21-10.49,3.48-3.93.28-7.62-.47-11.08-2.24s-5.58-4.58-6.36-8.45l-.24-1.16ZM619.22,385.37c-.32,2.21-1.41,4.17-3.3,5.88s-4.05,2.96-6.48,3.73c-2.44.77-5.07.94-7.9.5-2.83-.44-5.34-1.66-7.54-3.65-1.26-1.11-2.16-2.35-2.71-3.73-.55-1.38-.91-2.82-1.06-4.31-.16-1.49-.2-2.98-.12-4.48.08-1.49.12-2.84.12-4.06-.16-6.52-.2-12.98-.12-19.39.08-6.41.04-12.87-.12-19.39,0-2.65-.24-5.33-.71-8.04-.47-2.71-.23-5.39.71-8.04.78-1.99,2.16-3.7,4.12-5.14,1.96-1.43,4.16-2.43,6.6-2.98,2.43-.55,4.95-.61,7.54-.17,2.59.44,4.83,1.6,6.72,3.48,2.51,2.21,3.77,4.39,3.77,6.55v19.14c0,3.76.08,7.46.24,11.1.15,5.3.23,10.61.23,15.91v17.09h.01Z"/>
      <path class="cls-5" d="M630.54,339.33c-2.77-.55-5.16-1.49-7.17-2.82s-3.4-2.87-4.16-4.64-.76-3.59,0-5.47c.76-1.88,2.46-3.59,5.09-5.14,2.22-1.33,4.71-1.99,7.48-1.99h8.11c0-.77-.07-2.46-.21-5.06s-.18-5.44-.1-8.54c.07-3.09.31-6.05.73-8.87.42-2.82,1.18-4.78,2.29-5.88,2.77-3.09,6.2-4.56,10.29-4.39,4.09.17,7.45,1.74,10.08,4.72.55.55,1.07,1.22,1.56,1.99.48.77.73,1.49.73,2.15.14,3.98.17,7.96.1,11.93-.07,3.98-.1,7.96-.1,11.93h16.42c2.49,0,4.64.66,6.44,1.99,1.8,1.33,3.08,2.88,3.85,4.64.76,1.77.97,3.59.62,5.47-.35,1.88-1.42,3.43-3.22,4.64-3.19,2.1-6.89,3.21-11.12,3.31-4.23.11-8.56.17-12.99.17,0,6.08-.04,12.16-.1,18.23-.07,6.08-.04,12.16.1,18.23,0,2.65.17,5.36.52,8.12.34,2.76.1,5.42-.73,7.96-.7,1.99-1.87,3.56-3.53,4.72s-3.53,1.88-5.61,2.15-4.23.17-6.44-.33c-2.22-.5-4.3-1.41-6.24-2.73-.97-.77-1.7-2.1-2.18-3.98-.49-1.88-.8-3.87-.94-5.97-.14-2.43-.14-5.03,0-7.79v-8.62c0-3.54-.04-7.21-.1-11.02-.07-3.81-.1-7.43-.1-10.86v-8.12l-9.37-.13Z"/>
    </g>
    <g>
      <path class="cls-4" d="M22.13,375.34c-.62-1.76-2-6.18-.35-7.75,1.06-1.01,4.15-.58,5.34-.34,4.48.88,6.83,3.73,10.31,6.22,6.8,4.86,16.44,6.42,24.58,6.76,7.51.32,13.64-1.82,19.17-6.96,4.6-4.28,7.84-10.63,4.89-16.8-3.64-7.62-13.05-8.7-20.48-10.07-9.39-1.73-19.28-2.94-27.78-7.63-7.45-4.12-12.95-10.33-14.29-18.87-1.57-10.02,6.07-17.97,14.43-22.32,8.19-4.26,17.93-5.88,27.08-5.71,8.54.16,18.59,1.51,26.29,5.47,4.08,2.1,7.92,10.82.63,11-4.4.11-9.22-1.71-13.52-2.58-7.99-1.62-15.42-1.17-23.22,1.29-6.2,1.96-12.03,5.86-14.97,11.9-3.35,6.87,1.76,10.69,8.12,12.31,9.47,2.42,19.23,2.86,28.58,5.98,8.33,2.78,14.74,6.93,20.47,13.54,6.77,7.81,8.01,19.57,2.83,28.58-4.89,8.51-17.41,13.43-26.75,14.2-10.12.84-20.7-1.43-30.08-5.11-7.46-2.93-16.35-7.22-21.49-13.59-1.46-1.81-8.83,4.89-7.07,7.07,4.69,5.81,12.46,9.67,19.16,12.65,9.45,4.21,19.85,6.68,30.22,6.62,16.6-.09,35.22-10.32,42.97-25.27,8.94-17.25-.01-35.4-16.79-43.27-9.06-4.25-18.79-5.93-28.57-7.6-4.39-.75-11.4-1.04-14.37-4.93-4.19-5.47,8.23-7.21,11.49-7.67,5.19-.73,9.88.05,14.94,1.12,4.46.95,9.59,2.81,14.2,2.12,6.92-1.04,14.01-7.9,15.24-14.81,1.77-9.97-8.32-12.52-15.85-14.35-9.98-2.43-20.42-2.91-30.54-1.01-16,3-34.48,14.08-40.11,30.3-6.82,19.65,13.5,31.93,29.53,35.57,6.24,1.42,12.6,2.19,18.83,3.68,5.52,1.32,11.11,2.56,13.62,8.24,6.4,14.48-20.99,8.6-27.45,6.34-8.68-3.03-15-13.09-25.22-9.25-8.31,3.12-14.59,12.28-11.49,21.06.87,2.53,8.36-3.63,7.47-6.13Z"/>
      <g>
        <path class="cls-4" d="M183.11,427.23c-1.51,5.52-10.75,4.2-13.96.52-2.67-3.07-2.02-10.01-2.11-13.77-.2-8.35.93-17.3-.65-25.54-.13-.68-.76-.74-1.34-.62-16.11,3.3-35.23,2.93-47.1-10.14-11.7-12.89-12.28-37.65,1.56-49.21,7.01-5.85,16.31-8.73,25.22-9.95,4.57-.63,9.16-.81,13.74-.24,3.47.43,6.92,2.13,10.26,1.97,4.66-.23,8.24-.24,11.77,3.45,3.28,3.43,2.57,7.6,2.6,12.05.06,9.91.08,19.83.07,29.74-.02,20.81-.13,41.61-.13,62.42,0,1.93,3.62-.57,4.04-.9,1.48-1.18,3.46-3.18,3.46-5.24,0-22.13.13-44.25.13-66.37,0-5.62-.01-11.23-.03-16.85-.01-2.98-.03-5.96-.04-8.94-.02-2.66.6-6.43-.25-8.97-1.07-3.17-4.36-5.84-7.26-7.14-4.1-1.84-8.21-.47-12.39-1.46-18.46-4.4-39.48.95-53.6,13.71-13.77,12.44-19.72,32.71-11.89,50.16,9.57,21.34,34.79,23.46,55.03,19.31-.45-.21-.89-.42-1.34-.62,1.31,6.84.56,14.28.59,21.21.02,5.45-1.31,15.71,3.34,19.52,10.85,8.9,24.65-1.83,27.68-12.9.6-2.19-2.18-.95-3.01-.47-1.84,1.02-3.82,3.19-4.39,5.27Z"/>
        <path class="cls-4" d="M126.22,367.89c4.3,13.24,24.13,9.16,34.02,5.93,2.52-.82,6.16-3.85,6.16-6.77v-34.14c-.06-.39-.28-.62-.68-.68-10.05-2.58-21.4-1.68-29.68,5.02-9.65,7.81-11.33,18.89-9.82,30.64.28,2.16,7.86-3.29,7.5-6.14-.74-5.75-1.69-13.42,1.64-18.57,2.85-4.42,10.18-4.82,14.92-4.78,2.04.02,7.93.03,8.63,1.38.58,1.11,0,4.12,0,5.36v28.05c2.05-2.26,4.11-4.51,6.16-6.77-8.59,2.81-27.5,7.15-31.34-4.68-.82-2.48-8.33,3.6-7.51,6.15Z"/>
      </g>
      <path class="cls-4" d="M264.32,380.62c1.19,1.8,1.87,3.84,1.78,6.02-.13,3.45-2.72,3.23-5.57,2.61-4.62-.99-7.73-4.9-10.56-8.41-.61-.76-2.36.3-2.85.65-9.91,7.05-22.19,10.13-33.91,5.75-10.59-3.96-19.03-13.71-21.43-24.74-2.31-10.63-1.09-22.37-.44-33.13.13-2.22-.04-4.55.36-6.75.6-3.35,2.59-4.02,6-3.48,7.29,1.15,8.89,6.23,8.92,12.68.05,11.34-3.1,23.92.82,34.92,3.63,10.18,12.77,11.82,21.56,6.65,3.48-2.05,6.29-4.65,8.92-7.68,1.24-1.42,2.78-2.7,3.85-4.24,1.64-2.38,1.06-3.87.79-6.74-.55-5.78-.64-11.6-.54-17.4.08-4.54-.94-14.26,2.97-17.53,5.28-4.42,12.47,3.02,13.34,7.74,1.08,5.87-.84,12.63-1.18,18.6-.69,11.94-.24,24.52,7.17,34.48,1.33,1.79,8.78-4.77,7.07-7.07-7.5-10.08-7.46-23.16-6.66-35.17.6-9.03,4.7-25.62-9.15-26.92-8.76-.82-16.31,7.53-19.06,15.01-1.99,5.42-1.91,11.31-2.01,17.01-.12,7.12.13,14.2.98,21.27,1.15-1.75,2.31-3.49,3.46-5.24-2.29,1.97-3.92,4.52-6.14,6.5-3.99,3.56-9.88,4.17-14.03.64-6.28-5.35-5.88-16.36-5.57-23.83.18-4.45.73-8.88.85-13.34.1-3.64.73-8.34-.95-11.72-2.76-5.58-10.56-7.43-16.07-5.49-14.5,5.1-13.57,22.11-13.81,34.58-.3,15.96.44,31.73,14.02,42.41,14.82,11.67,34.02,8.31,48.5-1.99-.95.22-1.9.43-2.85.65,5.53,6.85,13.54,12.59,22.14,6.81,6.85-4.61,11.33-13.64,6.34-21.17-1.14-1.75-8.69,4.6-7.06,7.06Z"/>
      <g>
        <path class="cls-4" d="M335.86,371.5c3.99-.73,8.69-.71,11.74,2.42,1.46,1.5,2.26,3.77,1.74,5.86-.8,3.22-4.25,4.34-6.95,5.46-8.6,3.57-18.34,6.02-27.66,6.38-17.1.66-34.97-9.56-39.63-26.78-2.38-8.81-1.95-18.44,1.32-26.98,3.46-9.02,12.57-13.79,21.32-16.75,15.38-5.19,36.29-5.43,44.98,10.99,13.4,25.33-28.9,30.03-44.27,34.33-1.48.41-8.02,5.28-5.95,7.23,12.66,11.92,30.84,3.46,44.18-2.46,1.9-.84,4.34-2.97,5-5,.55-1.68.12-2.65-1.8-1.8-12.33,5.46-28.67,13.14-40.31,2.18-1.98,2.41-3.96,4.82-5.95,7.23,12.89-3.61,26.23-5.58,38.28-11.75,8.95-4.58,18.78-12.46,20.4-23.03,1.67-10.9-5.32-21.09-15-25.59-11-5.11-24.47-3.29-35.58.56-10.6,3.67-21.01,9.91-27.74,19.07-6.41,8.71-8.78,20.6-7.62,31.24,1.29,11.89,7.82,22.02,17.89,28.47,10.39,6.65,22.72,7.33,34.57,5.19,11.9-2.15,26.02-5.81,33.94-15.66,3.02-3.76,5.89-9.23,3.13-13.93-3.04-5.17-10.05-5.23-15.2-4.28-2.45.46-8.14,8-4.83,7.4Z"/>
        <path class="cls-4" d="M302.11,335.9c-8.22,4.49-12.98,11.03-14.64,20.23-.17.94.27,1.56,1.28,1.28,8.05-2.18,16.27-3.88,24.19-6.53,6.01-2.01,13.28-4.84,16.35-10.89,4.01-7.89-5.15-9.67-11.14-9.18-5.75.47-10.93,2.57-16.04,5.09-1.9.94-4.32,2.91-5,5-.53,1.61-.12,2.75,1.8,1.8,2.75-1.35,5.37-2.65,8.37-3.42,3.03-.79,6.16-1.26,9.28-.94,1.31.14,2.75.29,3.94.9.58.3,2.54,2.18,2.56,2.13-.52,1.24-5.88,2.33-7.06,2.7-2.39.75-4.82,1.42-7.24,2.06-5.05,1.34-10.14,2.54-15.19,3.9l1.28,1.28c.57-3.19.96-6.92,4.05-8.61,1.89-1.03,4.3-2.85,5-5,.51-1.54.13-2.85-1.79-1.8Z"/>
      </g>
      <g>
        <path class="cls-4" d="M410.52,371.5c3.51-.74,7.47-.58,10.01,2.32,4.26,4.87.11,9.61-4.52,11.76-7.3,3.39-15.84,5.82-23.91,6.05-16.4.47-30.61-11.82-34.05-27.62-1.69-7.77-1.46-15.86.54-23.55,2.33-8.97,7.92-14.45,16.24-18.29,14.37-6.64,33.78-6.52,41.38,9.72,2.06,4.41,2.86,9.7,1.58,14.45-1.4,5.2-5.88,8.23-10.45,10.53-9.18,4.64-19.18,6.45-28.89,9.56-1.54.49-7.94,5.1-5.95,7.23,11.01,11.73,27.12,3.49,38.83-2.46,1.9-.96,4.31-2.89,5-5,.52-1.59.12-2.78-1.8-1.8-10.75,5.46-24.85,12.94-34.96,2.18-1.98,2.41-3.96,4.82-5.95,7.23,11.69-3.73,23.77-5.88,34.45-12.27,8.74-5.23,16.99-13.61,17.73-24.24.71-10.16-5.28-20.22-14.54-24.47-9.91-4.55-21.97-2.26-31.65,1.83-9.5,4.01-18.67,10.84-24.04,19.76-5.24,8.7-6.86,19.9-5.93,29.89,1.05,11.25,6.33,21.6,15.53,28.38,9.02,6.65,20.1,7.48,30.78,5.21,10.83-2.31,23.43-6.46,30.14-15.87,2.71-3.81,5.1-9.09,2.66-13.64-2.65-4.93-8.56-5.3-13.42-4.28-2.07.44-4.27,2.6-5.29,4.38-.54.94-1.73,3.47.48,3.01Z"/>
        <path class="cls-4" d="M380.64,336.41c-7.4,4.7-11.2,11.17-12.54,19.71-.14.9.25,1.6,1.28,1.28,7.79-2.41,15.86-4.23,23.39-7.4,5-2.1,11.17-5.45,13.14-10.9,2.51-6.95-4.68-8.79-10.17-8.29-5.2.47-9.73,2.56-14.19,5.08-1.89,1.06-4.29,2.84-5,5-.49,1.51-.12,2.88,1.8,1.8,2.04-1.15,4.03-2.33,6.25-3.1,2.37-.82,4.89-1.38,7.4-1.37,1.05,0,2.12.12,3.14.37.66.09,1.27.3,1.85.64,1.18.22,1.78,1,1.8,2.33.34.4,2.23-.86-.16.43-.85.46-1.77.84-2.67,1.22-2.3.96-4.68,1.72-7.06,2.46-4.88,1.53-9.83,2.84-14.71,4.35l1.28,1.28c.5-3.16.82-7.24,3.78-9.13,1.35-.86,4.59-3.45,4.38-5.29-.2-1.9-1.53-1.4-2.99-.47Z"/>
      </g>
      <path class="cls-4" d="M500.04,378.47c4.49,2.07,13.81,11.2,3.9,12.43-6.24.78-13.21-1.36-19.51-1.64-6.7-.3-13.39-.18-20.1-.02-6.81.17-13.69,1.05-20.48,1.06-5.99,0-14.29-2.29-13.36-10.02.7-5.76,7.56-11.6,11.17-15.84,9.02-10.58,19.17-20.18,28.99-30.01.15-.15,4.1-5.11,1.8-5.02-7.66.31-15.31.31-22.93,1.14-6.19.68-18.78,1.68-19.7-7.36-.65-6.34,7.37-5.33,11.51-5.56,4-.22,8-.4,12-.54,7.07-.24,14.17-.19,21.24-.65,7.43-.48,17.61-1.59,24.16,2.91,3.2,2.2,4.31,6.6,2.38,10.07-1.6,2.88-4.91,4.81-7.31,6.96-12.66,11.31-24.76,23.62-36.09,36.26-.32.36-2.81,4.06-.9,4.04,7.74-.1,15.48-.01,23.22.33,6.46.28,14.28-.22,20.49,1.66,2.55.77,8.65-6.74,6.14-7.5-6.23-1.88-14-1.37-20.49-1.66-7.74-.34-15.48-.43-23.22-.33-.3,1.35-.6,2.69-.9,4.04,11.65-13,24.35-25.21,37.37-36.8,4.47-3.98,9.64-9.23,10.09-15.56.49-6.9-4.78-9.93-10.77-11.31-7.61-1.75-15.37-.57-23.06-.37-7.95.2-15.89.35-23.84.73-6.91.33-14-.31-19.97,3.69-4.54,3.04-9.45,8.56-9.57,14.34-.17,8.31,8.98,10.85,15.75,10.65,4.46-.13,8.88-.99,13.35-1.22,4.97-.26,9.95-.26,14.93-.47.6-1.67,1.2-3.35,1.8-5.02-13.27,13.28-26.53,26.43-38.39,41.01-3.82,4.7-8.54,11.28-6.1,17.64,3.06,7.96,12.62,7.51,19.62,6.87,9.76-.88,19.74-1.02,29.54-.84,4.19.08,8.41.21,12.59.65,4.07.42,8.1,1.51,12.22,1.2,6.63-.49,12.9-4.14,16.43-9.83,4.48-7.24.16-13.96-6.89-17.21-2.87-1.28-8.67,6.38-7.11,7.1Z"/>
      <g>
        <path class="cls-4" d="M572.08,371.5c3.81-.77,8.35-.57,10.94,2.82,1.13,1.48,1.58,3.64,1.2,5.45-.66,3.19-3.89,4.61-6.59,5.81-7.91,3.51-17.15,6.05-25.84,6.07-17.08.03-31.78-12.61-34.94-29.3-1.54-8.12-.97-16.68,1.71-24.5,2.81-8.19,9.63-12.92,17.39-16.15,15.2-6.32,37.03-5.66,43.19,12.74,1.56,4.65,1.96,10.78-.79,15.1-2.58,4.04-7.51,6.35-11.73,8.24-9.04,4.04-18.72,5.76-28.14,8.65-1.53.47-7.96,5.15-5.95,7.23,11.4,11.81,28.23,3.45,40.35-2.46,1.9-.93,4.32-2.92,5-5,.53-1.62.12-2.74-1.8-1.8-11.15,5.44-26.02,13.02-36.48,2.18-1.98,2.41-3.96,4.82-5.95,7.23,11.56-3.55,23.37-5.64,34.16-11.37,8.64-4.58,17.81-12.42,19.6-22.54,1.95-11.06-4.27-22.12-14.33-26.86-9.82-4.62-21.87-2.73-31.68.96-9.76,3.67-19.22,9.97-25.3,18.56-6.01,8.5-8.16,19.79-7.51,30.05.74,11.59,5.82,21.97,15.06,29.15,9.1,7.07,20.46,8.42,31.55,6.45,11.62-2.06,25.56-6.25,32.86-16.2,2.79-3.81,5.26-9.04,2.74-13.64-2.75-5.04-8.99-5.28-13.92-4.28-2.07.42-4.28,2.61-5.29,4.38-.54.98-1.72,3.47.49,3.03Z"/>
        <path class="cls-4" d="M540.85,336.41c-7.53,4.52-11.48,11.18-12.88,19.71-.15.91.25,1.59,1.28,1.28,8.1-2.41,16.47-4.23,24.32-7.4,5.1-2.06,11.45-5.36,13.48-10.9,2.61-7.13-5.1-8.77-10.57-8.29-5.37.47-10.07,2.56-14.72,5.08-1.89,1.02-4.3,2.86-5,5-.5,1.55-.12,2.84,1.8,1.8,2.22-1.2,4.38-2.43,6.8-3.2,3.75-1.19,13.1-3.14,14.57,2.06.05.19,1.51-.6-.38.43-.88.48-1.85.85-2.78,1.22-2.41.96-4.91,1.72-7.38,2.46-5.08,1.53-10.23,2.84-15.32,4.35.43.43.86.86,1.28,1.28.56-3.42.92-7.21,4.12-9.13,2.47-1.46,6.87-9.04,1.38-5.75Z"/>
      </g>
      <g>
        <path class="cls-4" d="M591.8,288.65c2.21-10.96,26.84-5.5,24.84,6.15-1,5.79-11.62,4.79-15.84,3.39-5.08-1.68-7.9-5.02-8.94-10.2-.47-2.31-8.05,3.38-7.5,6.14,4.06,20.05,38.79,14.15,39.8-4.77.55-10.29-10.52-14.68-19.3-13.73-9.61,1.05-18.51,8.24-20.45,17.84-.44,2.18,2.07,1.01,3.01.47,1.71-.98,3.96-3.24,4.38-5.29Z"/>
        <path class="cls-4" d="M615.52,387.78c-1.71,7.81-15.64,3.7-19.13-.63-3.99-4.95-2.4-12.95-2.5-18.86-.14-8.38.04-16.76-.01-25.14-.02-3.77-.01-7.56-.17-11.33-.15-3.55-1.66-7.99-.66-11.43,2.55-8.73,16.58-4.68,20.49.95,1.78,2.57,1.47,5.27,1.47,8.27v11.94c0,15.63.47,31.27.47,46.91,0,1.93,3.62-.57,4.04-.9,1.48-1.18,3.46-3.18,3.46-5.24,0-17.52-.47-35.03-.47-52.54,0-7,1.3-13.31-4.57-18.22-5.52-4.62-13.53-4.2-19.74-1.19-5.1,2.47-9.98,7.03-11.89,12.46-1.24,3.52-.96,6.71-.51,10.32.51,4.07.51,8.17.56,12.27.12,9.35-.11,18.7.03,28.05.1,6.37-1.47,14.62,2.49,20.15,9.39,13.09,31.14,2.64,34.04-10.64.48-2.18-2.1-.99-3.01-.47-1.76.98-3.94,3.22-4.39,5.27Z"/>
      </g>
      <path class="cls-4" d="M633.62,335.58c-4.17-.97-10.09-3.24-11.08-8.12-1.22-6.02,10.73-4.44,14.29-4.44,2.75,0,6.87-4.04,6.82-6.82-.09-5.15-.5-10.27-.25-15.43.09-1.92-.16-8.11,1.44-9.7,1.43-1.43,6.12-.83,7.91-.39,5.48,1.35,8.73,5.33,8.84,10.79.15,6.96-.07,13.92-.08,20.88.06.39.28.62.68.68,5.4,0,10.84-.24,16.23,0,2.23.1,4.29.46,6.17,1.78,2.06,1.44,6.07,6.21,4.31,8.99-1.21,1.92-7.74,1.78-9.39,1.84-3.72.14-7.45.11-11.17.12-2.79,0-6.82,4.03-6.82,6.82-.01,10.94-.25,21.88-.07,32.82.04,2.55.04,5.12.21,7.67.17,2.64,1.01,5.69.42,8.29-1.39,6.18-11.57,4.37-15.31.97-2.92-2.67-2.91-8.05-2.99-11.72-.1-4.43.09-8.88.08-13.32-.01-10.29-.21-20.57-.21-30.86-.06-.39-.28-.62-.68-.68-3.12-.06-6.23-.12-9.35-.17-2.04-.04-4.06,1.98-5.24,3.46-.36.45-2.78,4-.9,4.04,1.4.02,2.81.05,4.21.07.66.01,4.48-.42,5.02.09-.69-.64-.56,3.13-.56,2.85v6.33c.01,3.67.08,7.35.13,11.02.11,7.51-.12,15.03-.03,22.54.07,6.17.44,12.46,6.68,15.19,11.98,5.25,26.02-3.53,26.69-16.57.38-7.42-.75-15.18-.76-22.65-.02-8.51.13-17.02.14-25.53-2.27,2.27-4.55,4.55-6.82,6.82,11.6-.02,26.96.92,33.07-11.51,2.44-4.97.92-10.77-3.6-14-3.06-2.19-6.48-2.2-10.05-2.2s-7.62.46-11.23,0c-2.71-.35-1.57-.14-1.36-3.3.28-4.27.14-8.65.12-12.93-.03-6.75-.42-11.69-7.13-14.99-4.9-2.41-10.72-1.84-15.33.95-13.32,8.06-10.77,23.65-10.53,37.09,2.27-2.27,4.55-4.55,6.82-6.82-4.7,0-9.77-.59-14.27,1.06-4.51,1.65-8.74,4.93-11.44,8.9-6.05,8.91,1.61,15.58,10.21,17.58,2.68.62,8.57-6.93,6.16-7.49Z"/>
    </g>
  </g>
  <path class="cls-2" d="M275.98,105.38c-3.39-5.75-5.75-11.86-7.07-18.34-2.01-6.57-3.21-13.3-3.58-20.19-.97-9.88-1.82-19.59.66-29.31,4.52-17.68,19.19-31.75,37.06-35.95,13.49-3.17,27.06-1.97,38.24,6.85,11.32,8.93,11.35,26.33,8.6,38.94-3.87,17.77-11.57,34.38-16.83,51.74-4.39,14.51-11.07,31.22-8.48,46.73,1.96,11.71,10.59,19.21,20.69,24.78,16.37,9.03,36.55,6.09,53.47.95"/>
  <path class="cls-2" d="M271.18,246.39c-9.86-5.75-20.92-11.49-26.52-22.01-6.91-12.96-3.78-28.29,2.05-40.9,5.83-12.62,13.41-25.75,25.36-33.4,4.82-3.09,9.81-5.02,15.35-6.46,4.74-1.24,10.61-2.78,15.39-.77,7.85,3.31,11.71,10.27,13.41,18.28,2.43,11.44,2.1,23.73,2.64,35.37.22,4.74.17,9.69,1.09,14.37,1.2,6.07,5.08,10.32,10.11,13.41,12.26,7.53,27.96,6.6,41.82,7.72"/>
  <path class="cls-2" d="M236.17,303.47h0c-.57-.47-1.14-.93-1.72-1.4l-4.16-3.4h0c-1.96-1.73-3.98-3.44-5.68-5.41h0c-6.22-7.17-11.85-15.07-16.63-23.27h0c-2.03-3.49-3.97-7.18-5.12-11.02h0c-.69-2.29-.93-4.76-1.07-7.16h0c-.14-2.46-.25-5.04.25-7.43h0c.7-3.3,2.21-6.54,3.84-9.53h0c1.96-3.59,4.57-6.86,7.13-10.07h0c2.6-3.26,5.43-6.37,8.37-9.32h0c2.83-2.84,5.79-5.62,8.95-8.09h0c2.87-2.24,5.86-4.47,9.08-6.11h0c2.49-1.27,5.2-2.26,7.92-2.9h0c2.15-.51,4.41-.64,6.62-.76h0c1.97-.1,4.01-.3,5.93.06h0c1.87.35,3.9.96,5.43,2.04h0c1.87,1.31,3.32,3.42,4.58,5.38h0c1.45,2.26,2.51,4.84,3.44,7.38h0c1.03,2.82,1.78,5.78,2.37,8.72h0c.67,3.32.96,6.72,1.35,10.09l1.03,10.91,1.12,9.62,1.13,8.13h0c.43,2.48.93,4.96,1.57,7.39h0c.53,2.03,1.14,4.06,1.9,6.01h0c.6,1.54,1.27,3.08,2.1,4.5h0c.74,1.27,1.59,2.51,2.57,3.6h0c.89.99,1.95,1.85,3.01,2.66h0c1.13.86,2.37,1.58,3.57,2.34l4.08,2.46h0c1.39.79,2.78,1.57,4.22,2.24h0c1.57.73,3.18,1.38,4.83,1.92h0c1.21.4,2.45.73,3.71.96h0c.75.14,1.51.19,2.27.26"/>
  <path class="cls-1" d="M252.37,215.12c-7.73,5.94-11.98,15.22-13.83,24.6-.92,4.61-1.48,9.3-1.5,14.01-.08,1.04.28-.54.45-.91,3.06-8.94,6.03-16.71,10.88-24.87,3.13-5.18,6.54-9.58,11.44-13.43,2.13-1.54,4.62-2.88,7.32-2.84,1.64.05,3.22.66,4.83.95-6.91-5.11-13.46-2.3-19.59,2.49Z"/>
  <path class="cls-1" d="M215.61,284.84c-1.93,1.43-4.01,2.86-6.46,3.14-4.57.31-8.99-1.49-13.15-3.18-4.39-1.84-9.06-3.01-13.79-3.49,5.51,2.37,10.55,5.64,15.96,8.2,6.97,2.79,13.88,2.34,18.21-4.43.42-.57.84-1.14,1.24-1.72-.67.51-1.34.99-2.01,1.48Z"/>
  <path class="cls-1" d="M418.92,225.65c-2.01,4.49-4.2,9.43-8.94,11.61-5.81,3.08-25.69,2.4-23.02-8.59-2.24,3.51-.96,7.7,2.12,10.22,3.75,3.16,8.85,4.23,13.65,4.37,5.46.04,10.91-2.67,13.67-7.47,1.7-2.86,2.16-6.22,2.61-9.47.01-.46.31-1.65-.09-.67Z"/>
  <path class="cls-1" d="M431.92,141.63c-1.31-7.15-3.99-14.79-10.57-18.68-3.82-2.38-8.84-3.23-12.95-1.07-2.31,1.11-3.89,2.99-4.02,5.61,1.45-4.09,6.68-4.73,10.32-3.46,3.15,1.05,6.04,3.74,7.75,6.07,5.05,7.33,6.99,15.98,10.74,24.08.2.47.41.93.61,1.4-.47-4.67-1.07-9.33-1.88-13.95Z"/>
  <path class="cls-1" d="M40.55,473.58c-3.03.17-6.03.71-9.05.94-1.89.1-4.12.21-5.54-1.27-1.71-1.97-1.61-4.84-2.21-7.26-.47,2.71-.8,5.66.18,7.91-2.5-1.39-2.71-3.48-2.22-7.16-2.2,4.12-1.33,7.68,2.97,8.4.75.93,1.85,1.66,3.46,2.05,5.15,1.06,10.16-1.3,15.09-2.46,1.29-.36,2.59-.71,3.88-1.08-2.2-.13-4.38-.15-6.56-.07Z"/>
  <path class="cls-1" d="M140.32,486.29c-3.78,1.43-7.98,1.2-11.7-.31-4.12-1.42-4.82-6.06-6.75-9.41-.97-1.72-2.29-3.25-4.44-3.04,2.25.48,2.84,2.8,3.29,4.76.75,3.79,1.61,8.22,5.44,10.08,4.73,2.33,10.73,1.76,14.86-1.54.65-.49,1.25-1.04,1.83-1.62-.83.4-1.67.77-2.53,1.08Z"/>
  <path class="cls-1" d="M157.61,452.03c.03,3.14.73,6.27.34,9.42-.06.51-.11,1.01-.18,1.52.46-.91.89-1.84,1.2-2.82,1.88-6.72-.18-14.18,3.19-20.56-3.31,3.22-4.63,7.91-4.55,12.44Z"/>
  <path class="cls-1" d="M80.74,475.77c-1.99-1.51-3.86-3.34-6.38-3.89,1.95,1.22,3.31,3.14,5.14,4.51,1.65,1.19,3.71,1.57,5.71,1.53-1.56-.54-3.12-1.16-4.47-2.15Z"/>
  <path class="cls-1" d="M29.19,412.25c-7.17,3.89-10.46,12.05-8.43,19.89.15.72.32,1.43.51,2.14.09-1.12.17-2.24.28-3.36.95-9.63,5.9-12.9,13.12-18,3.89-2.96,6.81-6.99,8.86-11.4-4.06,4.5-9.05,7.86-14.34,10.73Z"/>
  <path class="cls-1" d="M331.64,228.92c-2.55,4.55-5.01,9.2-8.7,12.94,9.8-5.1,14.38-16.14,17.2-26.26-2.95,4.37-5.8,8.8-8.5,13.32Z"/>
  <path class="cls-6" d="M352.42,125.92c-.63-.7-1.41-1.15-2.26-1.42-.13-.08-.27-.15-.41-.23-.93-.65-2.09-.91-3.25-.81-.8.02-1.61.2-2.42.56-1,.01-1.95.27-2.68,1.05-2.54,2.81-2.89,8.24-1.01,11.48,1.5,2.6,4.28,4.27,7.25,4.58,3.48.63,5.25-1.76,5.8-4.65.35-.79.58-1.64.69-2.51,1.82-2.26.1-6.01-1.71-8.05Z"/>
  <path class="cls-6" d="M280.99,150.38c-3.77-1.63-8.68-2.56-12.72-1.25-.95-.09-1.94-.02-2.93.27-.35.07-.7.18-1.04.28-1.19.07-2.37.19-3.48.66-1.83.74-3.43,1.97-4.79,3.38-3.09,3.53-5.27,8.55-4.26,13.27,1.83,7.33,9.32,11.41,16.16,13.12,5.6,1.16,11.51-1.44,15.09-5.77,5.92-7.24,8.26-19.41-2.03-23.96Z"/>
  <path class="cls-6" d="M99.41,498.01c-2.61,1.73-3.57,4.98-3.74,7.97-.1,1.81.04,3.88,1.43,5.2,2.09,1.9,4.78,1.29,6.5-.46.78-.24,1.5-.7,2.12-1.31,1.81-1.53,2.64-3.88,2.78-6.2.49-4.76-5.28-7.51-9.09-5.2Z"/>
  <path class="cls-6" d="M2.49,434.54c-1.58.95-2.43,2.91-2.31,4.76-.24.68-.26,1.46.02,2.24.52,1.42,1.92,2.29,3.25,2.84,2.23,1.14,4.65-.6,5.8-2.49,3.11-4.87-1.8-9.95-6.76-7.35Z"/>
  <path class="cls-6" d="M180.74,238.06c-.83-1.69-2.22-3.51-3.9-4.64-1.64-1.94-4.27-2.73-6.84-2.15-.5.1-1,.24-1.49.4-.64.16-1.24.41-1.78.76-1.45.77-2.71,1.86-3.44,3.31-.26.63-.49,1.33-.66,2.07-.38.61-.71,1.24-1,1.88-1.1,2.63-2.45,5.43-1.96,8.36,1.45,7.59,12.6,10.95,18.35,6.04,4.72-3.81,5.52-10.82,2.72-16.03Z"/>
  <path class="cls-1" d="M274.22,155.49c-8.43-3.57-18.55,4.39-13.85,13.39-.33-2.92.04-6.19,2.25-8.34,3.12-2.94,7.98-5.08,12.24-3.67.78.32,1.49.79,2.16,1.29-.71-1.09-1.64-2.07-2.8-2.67Z"/>
  <path class="cls-1" d="M345.29,126.8c-2.13,1.12-3.1,3.88-2.26,6.11.12.32.28.63.44.93-.09-.57-.16-1.15-.12-1.73-.01-1.69,2.02-6.23,4.14-5.17-.5-.77-1.51-.5-2.2-.14Z"/>
  <path class="cls-1" d="M178.86,245.57c-1.8,3.61-5.39,5.46-9.38,4.88,4.67,2.34,9.26-.17,10.1-5.27.5-2.32-.05-.67-.72.39Z"/>
  <path class="cls-1" d="M99.3,505.98c-.25-.61-.19-1.29-.33-1.93-.09.61-.27,1.26-.11,1.87.21.7.85,1.13,1.47,1.46-.38-.44-.81-.86-1.03-1.4Z"/>
  <path class="cls-1" d="M2.34,439.09c-.13,1.71.75,3.38,2.65,3.28-1.54-.41-2.24-1.87-2.65-3.28Z"/>
  <text class="cls-3" transform="translate(192.44 476.07) scale(.79 1)"><tspan x="0" y="0">Squeeze the Fun out of Life</tspan></text>
</svg>